<svg width="80" height="80" viewBox="0 0 80 80" fill="none" xmlns="http://www.w3.org/2000/svg">
<g id="Group 2334">
<circle id="Ellipse 2" cx="40" cy="40" r="39.5" stroke="#811AC0"/>
<path id="Vector" d="M45.7083 49.2931C45.8012 49.386 45.8749 49.4963 45.9252 49.6177C45.9755 49.7391 46.0013 49.8692 46.0013 50.0006C46.0013 50.132 45.9755 50.2621 45.9252 50.3835C45.8749 50.5048 45.8012 50.6151 45.7083 50.7081C45.6154 50.801 45.5051 50.8747 45.3837 50.9249C45.2623 50.9752 45.1322 51.0011 45.0008 51.0011C44.8694 51.0011 44.7393 50.9752 44.6179 50.9249C44.4965 50.8747 44.3862 50.801 44.2933 50.7081L34.2933 40.7081C34.2003 40.6152 34.1266 40.5049 34.0762 40.3835C34.0259 40.2621 34 40.132 34 40.0006C34 39.8691 34.0259 39.739 34.0762 39.6176C34.1266 39.4962 34.2003 39.3859 34.2933 39.2931L44.2933 29.2931C44.4809 29.1054 44.7354 29 45.0008 29C45.2662 29 45.5206 29.1054 45.7083 29.2931C45.8959 29.4807 46.0013 29.7352 46.0013 30.0006C46.0013 30.2659 45.8959 30.5204 45.7083 30.7081L36.4145 40.0006L45.7083 49.2931Z" fill="#979090"/>
</g>
</svg>
