<svg width="80" height="80" viewBox="0 0 80 80" fill="none" xmlns="http://www.w3.org/2000/svg">
<g id="Group 2333">
<path id="Vector" d="M46.7074 40.7075L36.7074 50.7075C36.6145 50.8004 36.5042 50.8741 36.3828 50.9244C36.2614 50.9747 36.1313 51.0006 35.9999 51.0006C35.8686 51.0006 35.7384 50.9747 35.617 50.9244C35.4957 50.8741 35.3854 50.8004 35.2924 50.7075C35.1995 50.6146 35.1258 50.5043 35.0756 50.3829C35.0253 50.2615 34.9994 50.1314 34.9994 50C34.9994 49.8686 35.0253 49.7385 35.0756 49.6171C35.1258 49.4957 35.1995 49.3854 35.2924 49.2925L44.5862 40L35.2924 30.7075C35.1048 30.5199 34.9994 30.2654 34.9994 30C34.9994 29.7346 35.1048 29.4801 35.2924 29.2925C35.4801 29.1049 35.7346 28.9995 35.9999 28.9995C36.2653 28.9995 36.5198 29.1049 36.7074 29.2925L46.7074 39.2925C46.8004 39.3854 46.8742 39.4957 46.9245 39.6171C46.9748 39.7385 47.0007 39.8686 47.0007 40C47.0007 40.1314 46.9748 40.2615 46.9245 40.3829C46.8742 40.5043 46.8004 40.6146 46.7074 40.7075Z" fill="#979090"/>
<circle id="Ellipse 8" cx="40" cy="40" r="39.5" stroke="#811AC0"/>
</g>
</svg>
